STARTFONT 2.1
FONT -Adobe-ITC Bookman-Demi-I-Normal--17-120-100-100-P-99-ISO8859-1
SIZE 12 100 100
FONTBOUNDINGBOX 26 17 -5 -4

STARTPROPERTIES 26
_DEC_DEVICE_FONTNAMES "PS=Bookman-DemiItalic"
FONTNAME_REGISTRY ""
FAMILY_NAME "ITC Bookman"
FOUNDRY "Adobe"
WEIGHT_NAME "Demi"
SLANT "I"
SETWIDTH_NAME "Normal"
ADD_STYLE_NAME ""
PIXEL_SIZE 17
POINT_SIZE 120
RESOLUTION_X 100
RESOLUTION_Y 100
SPACING "P"
AVERAGE_WIDTH 99
CHARSET_REGISTRY "ISO8859"
CHARSET_ENCODING "1"
CHARSET_COLLECTIONS "ASCII ISO8859-1 ADOBE-STANDARD"
FULL_NAME "ITC Bookman Demi Italic"
COPYRIGHT "Copyright (c) 1991 Adobe Systems, Inc."
CAP_HEIGHT 12
X_HEIGHT 9
WEIGHT 10
QUAD_WIDTH 11
DEFAULT_CHAR 0
FONT_DESCENT 4
FONT_ASCENT 13
ENDPROPERTIES

CHARS 190

STARTCHAR space
ENCODING 32
SWIDTH 340 0
DWIDTH 5 0
BBX 1 1 0 0
BITMAP
00
ENDCHAR

STARTCHAR exclam
ENCODING 33
SWIDTH 320 0
DWIDTH 5 0
BBX 6 12 1 0
BITMAP
18
3C
38
38
38
30
30
20
00
60
F0
60
ENDCHAR

STARTCHAR quotedbl
ENCODING 34
SWIDTH 380 0
DWIDTH 6 0
BBX 7 5 2 7
BITMAP
44
EE
CC
CC
88
ENDCHAR

STARTCHAR numbersign
ENCODING 35
SWIDTH 680 0
DWIDTH 11 0
BBX 9 12 2 0
BITMAP
1B00
1B00
1B00
1B00
7F80
3600
3600
FF00
6C00
6C00
6C00
6C00
ENDCHAR

STARTCHAR dollar
ENCODING 36
SWIDTH 680 0
DWIDTH 11 0
BBX 11 15 0 -2
BITMAP
0300
0300
1FC0
3DE0
70C0
7000
7E00
3F80
0FC0
41C0
E1C0
F780
7F00
1800
1800
ENDCHAR

STARTCHAR percent
ENCODING 37
SWIDTH 880 0
DWIDTH 15 0
BBX 12 12 2 0
BITMAP
3810
6C20
CC40
CC80
D900
7200
04E0
09B0
1330
2330
4360
81C0
ENDCHAR

STARTCHAR ampersand
ENCODING 38
SWIDTH 980 0
DWIDTH 16 0
BBX 16 12 1 0
BITMAP
0F00
1D88
399C
3B1C
1E0C
3F08
6718
E3B0
E3E3
F1E3
7FFE
3C3C
ENDCHAR

STARTCHAR quoteright
ENCODING 39
SWIDTH 320 0
DWIDTH 5 0
BBX 4 5 3 7
BITMAP
60
F0
60
40
80
ENDCHAR

STARTCHAR parenleft
ENCODING 40
SWIDTH 260 0
DWIDTH 4 0
BBX 7 15 0 -2
BITMAP
0E
1E
38
30
70
60
60
E0
C0
C0
C0
C0
C0
E0
60
ENDCHAR

STARTCHAR parenright
ENCODING 41
SWIDTH 260 0
DWIDTH 4 0
BBX 7 15 -1 -2
BITMAP
0C
0E
06
06
06
06
06
0E
0C
0C
1C
18
38
F0
E0
ENDCHAR

STARTCHAR asterisk
ENCODING 42
SWIDTH 460 0
DWIDTH 8 0
BBX 6 6 3 6
BITMAP
6C
28
F4
BC
50
D8
ENDCHAR

STARTCHAR plus
ENCODING 43
SWIDTH 600 0
DWIDTH 10 0
BBX 8 8 2 0
BITMAP
18
18
18
FF
FF
18
18
18
ENDCHAR

STARTCHAR comma
ENCODING 44
SWIDTH 340 0
DWIDTH 5 0
BBX 4 5 1 -2
BITMAP
60
F0
60
40
80
ENDCHAR

STARTCHAR minus
ENCODING 45
SWIDTH 600 0
DWIDTH 10 0
BBX 8 2 2 3
BITMAP
FF
FF
ENDCHAR

STARTCHAR period
ENCODING 46
SWIDTH 340 0
DWIDTH 5 0
BBX 4 3 1 0
BITMAP
60
F0
60
ENDCHAR

STARTCHAR slash
ENCODING 47
SWIDTH 360 0
DWIDTH 6 0
BBX 8 15 0 -2
BITMAP
03
03
06
06
0C
0C
18
18
18
30
30
60
60
C0
C0
ENDCHAR

STARTCHAR zero
ENCODING 48
SWIDTH 680 0
DWIDTH 11 0
BBX 10 12 1 0
BITMAP
0F00
3B80
31C0
71C0
60C0
E1C0
E1C0
C180
E380
E300
7700
3C00
ENDCHAR

STARTCHAR one
ENCODING 49
SWIDTH 680 0
DWIDTH 11 0
BBX 7 12 3 0
BITMAP
0E
7E
7E
0C
1C
1C
18
38
38
30
FC
FC
ENDCHAR

STARTCHAR two
ENCODING 50
SWIDTH 680 0
DWIDTH 11 0
BBX 10 12 1 0
BITMAP
1F00
3B80
71C0
71C0
23C0
0380
0700
0E00
1C40
70C0
FF80
FF80
ENDCHAR

STARTCHAR three
ENCODING 51
SWIDTH 680 0
DWIDTH 11 0
BBX 10 12 1 0
BITMAP
0F80
3BC0
79C0
31C0
0380
0700
0780
01C0
61C0
E380
F780
7E00
ENDCHAR

STARTCHAR four
ENCODING 52
SWIDTH 680 0
DWIDTH 11 0
BBX 10 12 1 0
BITMAP
01C0
03C0
07C0
0D80
1980
3380
6300
FFC0
FFC0
0700
1F80
1F80
ENDCHAR

STARTCHAR five
ENCODING 53
SWIDTH 680 0
DWIDTH 11 0
BBX 10 12 1 0
BITMAP
3FC0
3FC0
3000
3000
6F00
7F80
63C0
01C0
61C0
E380
F780
7E00
ENDCHAR

STARTCHAR six
ENCODING 54
SWIDTH 680 0
DWIDTH 11 0
BBX 10 12 1 0
BITMAP
0F80
3DC0
31C0
7080
6000
EF80
F3C0
E1C0
E1C0
E180
7380
3E00
ENDCHAR

STARTCHAR seven
ENCODING 55
SWIDTH 680 0
DWIDTH 11 0
BBX 10 12 2 0
BITMAP
7FC0
FFC0
C180
8300
0600
0E00
0C00
1C00
1C00
3800
3800
3800
ENDCHAR

STARTCHAR eight
ENCODING 56
SWIDTH 680 0
DWIDTH 11 0
BBX 10 12 1 0
BITMAP
1F80
39C0
70C0
70C0
7F80
3F00
7F80
E3C0
C1C0
C180
E780
7E00
ENDCHAR

STARTCHAR nine
ENCODING 57
SWIDTH 680 0
DWIDTH 11 0
BBX 11 12 0 0
BITMAP
0F80
39C0
30E0
70E0
70E0
71E0
3FE0
1EC0
01C0
6180
F700
7C00
ENDCHAR

STARTCHAR colon
ENCODING 58
SWIDTH 340 0
DWIDTH 5 0
BBX 5 9 1 0
BITMAP
30
78
30
00
00
00
60
F0
60
ENDCHAR

STARTCHAR semicolon
ENCODING 59
SWIDTH 340 0
DWIDTH 5 0
BBX 5 11 1 -2
BITMAP
30
78
30
00
00
00
60
F0
60
40
80
ENDCHAR

STARTCHAR less
ENCODING 60
SWIDTH 620 0
DWIDTH 10 0
BBX 8 9 2 0
BITMAP
01
07
1E
78
E0
78
1E
07
01
ENDCHAR

STARTCHAR equal
ENCODING 61
SWIDTH 600 0
DWIDTH 10 0
BBX 8 5 2 2
BITMAP
FF
FF
00
FF
FF
ENDCHAR

STARTCHAR greater
ENCODING 62
SWIDTH 620 0
DWIDTH 10 0
BBX 8 9 2 0
BITMAP
80
E0
78
1E
07
1E
78
E0
80
ENDCHAR

STARTCHAR question
ENCODING 63
SWIDTH 620 0
DWIDTH 11 0
BBX 10 12 2 0
BITMAP
3F00
7380
F1C0
61C0
03C0
0780
0E00
0C00
0000
1800
3C00
1800
ENDCHAR

STARTCHAR at
ENCODING 64
SWIDTH 780 0
DWIDTH 13 0
BBX 12 12 1 0
BITMAP
0F00
39C0
6060
4FA0
D9B0
9110
B330
B320
DE40
4BA0
70C0
1F00
ENDCHAR

STARTCHAR A
ENCODING 65
SWIDTH 720 0
DWIDTH 12 0
BBX 12 12 0 0
BITMAP
0380
0380
0780
05C0
0DC0
19C0
19C0
3FE0
20E0
60E0
F1F0
F1F0
ENDCHAR

STARTCHAR B
ENCODING 66
SWIDTH 720 0
DWIDTH 12 0
BBX 12 12 0 0
BITMAP
3FC0
3FE0
1C70
1C30
3870
3FE0
3FE0
38F0
7070
70F0
FFE0
FFC0
ENDCHAR

STARTCHAR C
ENCODING 67
SWIDTH 700 0
DWIDTH 11 0
BBX 11 12 1 0
BITMAP
0760
1FE0
38E0
7060
7060
E000
E000
E000
E0C0
71C0
7F80
1E00
ENDCHAR

STARTCHAR D
ENCODING 68
SWIDTH 760 0
DWIDTH 13 0
BBX 13 12 1 0
BITMAP
3FC0
3FF0
1C70
1C38
3838
3838
3838
3870
7070
70E0
FFC0
FF00
ENDCHAR

STARTCHAR E
ENCODING 69
SWIDTH 720 0
DWIDTH 12 0
BBX 11 12 1 0
BITMAP
3FE0
3FE0
1C60
1C20
3980
3F80
3F00
3B20
7060
70C0
FFC0
FFC0
ENDCHAR

STARTCHAR F
ENCODING 70
SWIDTH 660 0
DWIDTH 11 0
BBX 11 12 1 0
BITMAP
3FE0
3FE0
1C60
1C20
3980
3F80
3F00
3B00
7000
7000
F800
F800
ENDCHAR

STARTCHAR G
ENCODING 71
SWIDTH 760 0
DWIDTH 12 0
BBX 12 12 1 0
BITMAP
0760
1FE0
38E0
7060
7060
E000
E1F0
E1F0
E0E0
71C0
7FC0
1EC0
ENDCHAR

STARTCHAR H
ENCODING 72
SWIDTH 800 0
DWIDTH 13 0
BBX 15 12 0 0
BITMAP
1F3E
1F3E
0E1C
0E1C
1C38
1FF8
1FF8
1C38
3870
3870
FCF8
FCF8
ENDCHAR

STARTCHAR I
ENCODING 73
SWIDTH 380 0
DWIDTH 7 0
BBX 9 12 0 0
BITMAP
1F80
1F80
0E00
0E00
1C00
1C00
1C00
1C00
3800
3800
FC00
FC00
ENDCHAR

STARTCHAR J
ENCODING 74
SWIDTH 620 0
DWIDTH 10 0
BBX 12 12 0 0
BITMAP
01F0
01F0
00E0
00E0
01C0
01C0
01C0
61C0
F380
E380
E780
7E00
ENDCHAR

STARTCHAR K
ENCODING 75
SWIDTH 780 0
DWIDTH 13 0
BBX 13 12 1 0
BITMAP
3EF8
3EF8
1C70
1CC0
3980
3F80
3FC0
39C0
71E0
70E0
F9F0
F9F0
ENDCHAR

STARTCHAR L
ENCODING 76
SWIDTH 640 0
DWIDTH 11 0
BBX 11 12 1 0
BITMAP
3F00
3F00
1C00
1C00
3800
3800
3800
3820
7060
70C0
FFC0
FF80
ENDCHAR

STARTCHAR M
ENCODING 77
SWIDTH 860 0
DWIDTH 14 0
BBX 15 12 1 0
BITMAP
3E3E
3E3E
1E7C
1E78
36F8
36B8
37B8
3730
6770
6670
F6F8
F6F8
ENDCHAR

STARTCHAR N
ENCODING 78
SWIDTH 740 0
DWIDTH 12 0
BBX 13 12 1 0
BITMAP
3E78
3E78
1E30
3730
3760
3360
33E0
33E0
61E0
61C0
F0C0
F0C0
ENDCHAR

STARTCHAR O
ENCODING 79
SWIDTH 760 0
DWIDTH 12 0
BBX 12 12 1 0
BITMAP
0780
1FE0
38E0
7070
7070
E070
E070
E0E0
E0E0
71C0
7F80
1E00
ENDCHAR

STARTCHAR P
ENCODING 80
SWIDTH 640 0
DWIDTH 11 0
BBX 12 12 1 0
BITMAP
3FE0
3FF0
1C70
1C70
38E0
3FE0
3F80
3800
7000
7000
F800
F800
ENDCHAR

STARTCHAR Q
ENCODING 81
SWIDTH 760 0
DWIDTH 12 0
BBX 12 15 1 -3
BITMAP
0780
1FE0
38E0
7070
7070
E070
E070
E7E0
EFE0
79C0
7FE0
1EE0
E0E0
E3C0
7F00
ENDCHAR

STARTCHAR R
ENCODING 82
SWIDTH 740 0
DWIDTH 12 0
BBX 12 12 1 0
BITMAP
3FE0
3FF0
1C70
1C70
38E0
3FE0
3F80
3B80
71C0
71C0
F8F0
F8F0
ENDCHAR

STARTCHAR S
ENCODING 83
SWIDTH 700 0
DWIDTH 12 0
BBX 11 12 1 0
BITMAP
1FA0
3DE0
7060
7020
7C00
3F80
0FC0
81E0
C0E0
E1E0
7BC0
5F80
ENDCHAR

STARTCHAR T
ENCODING 84
SWIDTH 700 0
DWIDTH 11 0
BBX 11 12 2 0
BITMAP
7FE0
7FE0
CE60
8E20
1C00
1C00
1C00
1C00
3800
3800
7C00
7C00
ENDCHAR

STARTCHAR U
ENCODING 85
SWIDTH 740 0
DWIDTH 12 0
BBX 12 12 2 0
BITMAP
7CF0
7CF0
3860
3860
7060
70C0
70C0
70C0
E0C0
E180
7F80
3E00
ENDCHAR

STARTCHAR V
ENCODING 86
SWIDTH 660 0
DWIDTH 11 0
BBX 11 12 2 0
BITMAP
F9E0
F9E0
7080
7180
7100
7300
3600
3C00
3C00
3800
3800
3000
ENDCHAR

STARTCHAR W
ENCODING 87
SWIDTH 1000 0
DWIDTH 16 0
BBX 17 12 2 0
BITMAP
FBE780
FBE780
71C200
71C600
71C400
73CC00
36D800
3CF000
3CF000
38E000
38E000
30C000
ENDCHAR

STARTCHAR X
ENCODING 88
SWIDTH 740 0
DWIDTH 12 0
BBX 14 12 0 0
BITMAP
3F7C
3F7C
1E30
0E60
0FC0
0780
0780
0FC0
19C0
31E0
FBF0
FBF0
ENDCHAR

STARTCHAR Y
ENCODING 89
SWIDTH 660 0
DWIDTH 11 0
BBX 13 12 1 0
BITMAP
FCF8
FCF8
3860
38C0
1D80
1F00
0E00
0E00
1C00
1C00
3E00
3E00
ENDCHAR

STARTCHAR Z
ENCODING 90
SWIDTH 680 0
DWIDTH 11 0
BBX 12 12 1 0
BITMAP
1FF0
3FF0
38E0
61C0
0380
0700
0E00
1C00
3860
71C0
FFC0
FF80
ENDCHAR

STARTCHAR bracketleft
ENCODING 91
SWIDTH 260 0
DWIDTH 4 0
BBX 7 15 0 -2
BITMAP
1E
18
18
18
30
30
30
60
60
60
60
C0
C0
C0
F0
ENDCHAR

STARTCHAR backslash
ENCODING 92
SWIDTH 580 0
DWIDTH 9 0
BBX 7 12 2 0
BITMAP
C0
C0
60
60
30
30
18
18
0C
0C
06
06
ENDCHAR

STARTCHAR bracketright
ENCODING 93
SWIDTH 260 0
DWIDTH 4 0
BBX 7 15 -1 -2
BITMAP
1E
06
06
06
0C
0C
0C
0C
18
18
18
30
30
30
F0
ENDCHAR

STARTCHAR asciicircum
ENCODING 94
SWIDTH 620 0
DWIDTH 10 0
BBX 8 7 2 5
BITMAP
18
3C
3C
66
66
C3
C3
ENDCHAR

STARTCHAR underscore
ENCODING 95
SWIDTH 500 0
DWIDTH 8 0
BBX 8 1 0 -3
BITMAP
FF
ENDCHAR

STARTCHAR quoteleft
ENCODING 96
SWIDTH 320 0
DWIDTH 5 0
BBX 4 5 2 7
BITMAP
10
20
60
F0
60
ENDCHAR

STARTCHAR a
ENCODING 97
SWIDTH 680 0
DWIDTH 11 0
BBX 11 9 1 0
BITMAP
0EC0
3BC0
7180
7180
E380
E300
E320
77E0
3DC0
ENDCHAR

STARTCHAR b
ENCODING 98
SWIDTH 600 0
DWIDTH 10 0
BBX 10 12 1 0
BITMAP
1800
7800
7000
3700
3F80
39C0
71C0
71C0
7180
6380
F700
EE00
ENDCHAR

STARTCHAR c
ENCODING 99
SWIDTH 560 0
DWIDTH 9 0
BBX 9 9 1 0
BITMAP
0F00
3B80
7380
6100
E000
E000
E300
7E00
3C00
ENDCHAR

STARTCHAR d
ENCODING 100
SWIDTH 680 0
DWIDTH 12 0
BBX 12 12 1 0
BITMAP
0030
00F0
00E0
0E60
3BE0
71C0
71C0
E180
E380
E3A0
77E0
3DC0
ENDCHAR

STARTCHAR e
ENCODING 101
SWIDTH 560 0
DWIDTH 9 0
BBX 9 9 1 0
BITMAP
0F00
3B80
7180
6380
FF00
E000
E180
7700
3C00
ENDCHAR

STARTCHAR f
ENCODING 102
SWIDTH 420 0
DWIDTH 7 0
BBX 17 16 -5 -4
BITMAP
001F00
007F80
006300
01F800
01F800
00E000
00C000
00C000
01C000
01C000
018000
018000
038000
630000
FF0000
7C0000
ENDCHAR

STARTCHAR g
ENCODING 103
SWIDTH 620 0
DWIDTH 10 0
BBX 11 13 0 -4
BITMAP
0760
1DE0
38C0
38C0
70C0
71C0
71C0
3BC0
1D80
0180
E380
FF00
3C00
ENDCHAR

STARTCHAR h
ENCODING 104
SWIDTH 700 0
DWIDTH 12 0
BBX 11 12 1 0
BITMAP
1800
7800
7000
3380
3FC0
39C0
71C0
7180
7380
63A0
E3E0
E1C0
ENDCHAR

STARTCHAR i
ENCODING 105
SWIDTH 380 0
DWIDTH 6 0
BBX 6 13 1 0
BITMAP
18
3C
18
00
38
F8
F0
70
60
E0
E8
F8
70
ENDCHAR

STARTCHAR j
ENCODING 106
SWIDTH 320 0
DWIDTH 5 0
BBX 11 17 -4 -4
BITMAP
00C0
01E0
00C0
0000
01C0
07C0
0780
0180
0380
0380
0380
0300
0700
0700
6600
FE00
7800
ENDCHAR

STARTCHAR k
ENCODING 107
SWIDTH 700 0
DWIDTH 11 0
BBX 11 12 1 0
BITMAP
0C00
3C00
3800
18E0
33E0
3600
7E00
7E00
7600
6720
E7E0
E3C0
ENDCHAR

STARTCHAR l
ENCODING 108
SWIDTH 380 0
DWIDTH 7 0
BBX 6 12 2 0
BITMAP
0C
7C
78
38
38
70
70
60
E0
E8
F8
70
ENDCHAR

STARTCHAR m
ENCODING 109
SWIDTH 960 0
DWIDTH 16 0
BBX 15 9 1 0
BITMAP
1BB8
7FFC
79DC
319C
7398
73B8
633A
E73E
E71C
ENDCHAR

STARTCHAR n
ENCODING 110
SWIDTH 680 0
DWIDTH 11 0
BBX 11 9 1 0
BITMAP
3780
FFC0
F9C0
31C0
7180
7380
63A0
E3E0
E1C0
ENDCHAR

STARTCHAR o
ENCODING 111
SWIDTH 600 0
DWIDTH 10 0
BBX 10 9 1 0
BITMAP
0F00
3B80
71C0
71C0
E1C0
E380
E380
7700
3C00
ENDCHAR

STARTCHAR p
ENCODING 112
SWIDTH 660 0
DWIDTH 11 0
BBX 11 13 0 -4
BITMAP
1B80
7FC0
7CE0
18E0
38E0
38C0
31C0
3B80
7700
7000
6000
F000
F000
ENDCHAR

STARTCHAR q
ENCODING 113
SWIDTH 620 0
DWIDTH 10 0
BBX 11 13 0 -4
BITMAP
0EE0
3BE0
71C0
71C0
E180
E380
E380
7780
3B80
0300
0300
0780
0780
ENDCHAR

STARTCHAR r
ENCODING 114
SWIDTH 500 0
DWIDTH 8 0
BBX 9 9 1 0
BITMAP
3700
FF80
FB00
3800
3000
7000
6000
E000
E000
ENDCHAR

STARTCHAR s
ENCODING 115
SWIDTH 540 0
DWIDTH 9 0
BBX 9 9 0 0
BITMAP
0F00
3B80
7180
7C00
3F00
0F80
E380
F700
7C00
ENDCHAR

STARTCHAR t
ENCODING 116
SWIDTH 440 0
DWIDTH 7 0
BBX 6 11 2 0
BITMAP
10
30
7C
FC
70
70
60
E0
E8
F8
70
ENDCHAR

STARTCHAR u
ENCODING 117
SWIDTH 680 0
DWIDTH 12 0
BBX 10 9 2 0
BITMAP
39C0
F9C0
F180
7380
6380
E300
E740
FFC0
7B80
ENDCHAR

STARTCHAR v
ENCODING 118
SWIDTH 540 0
DWIDTH 9 0
BBX 9 9 1 0
BITMAP
3300
F380
F380
6180
6180
E300
E700
FE00
7800
ENDCHAR

STARTCHAR w
ENCODING 119
SWIDTH 860 0
DWIDTH 14 0
BBX 14 9 1 0
BITMAP
3398
F39C
F39C
630C
670C
E718
EF38
FBF0
73C0
ENDCHAR

STARTCHAR x
ENCODING 120
SWIDTH 620 0
DWIDTH 10 0
BBX 11 9 0 0
BITMAP
0C60
3CE0
3F80
0F00
0E00
1E00
3740
E7C0
C380
ENDCHAR

STARTCHAR y
ENCODING 121
SWIDTH 600 0
DWIDTH 10 0
BBX 11 13 0 -4
BITMAP
1CE0
7CE0
78C0
18C0
39C0
31C0
3380
3F80
1D80
0180
E380
FF00
3C00
ENDCHAR

STARTCHAR z
ENCODING 122
SWIDTH 560 0
DWIDTH 9 0
BBX 9 9 1 0
BITMAP
3F80
7380
6700
0E00
1C00
3800
7300
E700
FE00
ENDCHAR

STARTCHAR braceleft
ENCODING 123
SWIDTH 300 0
DWIDTH 5 0
BBX 6 15 1 -2
BITMAP
1C
30
30
30
30
20
60
C0
60
60
60
C0
C0
C0
70
ENDCHAR

STARTCHAR bar
ENCODING 124
SWIDTH 620 0
DWIDTH 10 0
BBX 2 13 5 0
BITMAP
C0
C0
C0
C0
C0
C0
C0
C0
C0
C0
C0
C0
C0
ENDCHAR

STARTCHAR braceright
ENCODING 125
SWIDTH 300 0
DWIDTH 5 0
BBX 6 15 0 -2
BITMAP
38
0C
0C
0C
18
18
18
0C
18
10
30
30
30
30
E0
ENDCHAR

STARTCHAR asciitilde
ENCODING 126
SWIDTH 620 0
DWIDTH 10 0
BBX 10 3 0 3
BITMAP
3880
FFC0
4700
ENDCHAR

STARTCHAR exclamdown
ENCODING 161
SWIDTH 320 0
DWIDTH 5 0
BBX 6 12 0 -3
BITMAP
18
3C
18
00
10
30
30
70
70
70
F0
60
ENDCHAR

STARTCHAR cent
ENCODING 162
SWIDTH 680 0
DWIDTH 11 0
BBX 8 11 2 1
BITMAP
0C
08
1E
77
66
E0
C0
E2
7C
10
30
ENDCHAR

STARTCHAR sterling
ENCODING 163
SWIDTH 680 0
DWIDTH 11 0
BBX 13 12 -1 0
BITMAP
00F0
0398
0338
0710
0700
1FC0
0600
0E60
0C70
7E30
DFF0
71E0
ENDCHAR

STARTCHAR currency
ENCODING 164
SWIDTH 680 0
DWIDTH 11 0
BBX 8 8 2 1
BITMAP
5A
FF
66
C3
C3
66
FF
5A
ENDCHAR

STARTCHAR yen
ENCODING 165
SWIDTH 680 0
DWIDTH 11 0
BBX 11 12 1 0
BITMAP
7DE0
7DE0
38C0
3980
1D00
FFC0
1E00
FFC0
1C00
1C00
3E00
3E00
ENDCHAR

STARTCHAR brokenbar
ENCODING 166
SWIDTH 620 0
DWIDTH 10 0
BBX 2 13 5 0
BITMAP
C0
C0
C0
C0
00
00
00
00
00
C0
C0
C0
C0
ENDCHAR

STARTCHAR section
ENCODING 167
SWIDTH 620 0
DWIDTH 10 0
BBX 11 14 0 -2
BITMAP
07C0
0CE0
18C0
1C00
0F00
1FC0
31C0
38C0
3F80
0F00
0380
6180
E300
7E00
ENDCHAR

STARTCHAR dieresis
ENCODING 168
SWIDTH 520 0
DWIDTH 8 0
BBX 7 3 2 10
BITMAP
44
EE
44
ENDCHAR

STARTCHAR copyright
ENCODING 169
SWIDTH 780 0
DWIDTH 13 0
BBX 12 12 2 0
BITMAP
0F00
39C0
6060
47A0
CCB0
9890
9810
CCB0
4720
6060
39C0
0F00
ENDCHAR

STARTCHAR ordfeminine
ENCODING 170
SWIDTH 440 0
DWIDTH 7 0
BBX 7 7 1 5
BITMAP
1E
36
64
6C
36
00
FE
ENDCHAR

STARTCHAR guillemotleft
ENCODING 171
SWIDTH 380 0
DWIDTH 6 0
BBX 6 7 1 1
BITMAP
24
24
48
D8
48
48
48
ENDCHAR

STARTCHAR logicalnot
ENCODING 172
SWIDTH 620 0
DWIDTH 10 0
BBX 9 5 1 2
BITMAP
FF80
FF80
0180
0180
0180
ENDCHAR

STARTCHAR hyphen
ENCODING 173
SWIDTH 280 0
DWIDTH 4 0
BBX 3 2 0 3
BITMAP
E0
E0
ENDCHAR

STARTCHAR registered
ENCODING 174
SWIDTH 780 0
DWIDTH 13 0
BBX 12 12 2 0
BITMAP
0F00
39C0
6060
5F20
C9B0
8F10
8A10
CB30
5BA0
6060
39C0
0F00
ENDCHAR

STARTCHAR macron
ENCODING 175
SWIDTH 480 0
DWIDTH 8 0
BBX 6 1 3 10
BITMAP
FC
ENDCHAR

STARTCHAR degree
ENCODING 176
SWIDTH 400 0
DWIDTH 7 0
BBX 5 5 2 7
BITMAP
70
D8
88
D8
70
ENDCHAR

STARTCHAR plusminus
ENCODING 177
SWIDTH 600 0
DWIDTH 10 0
BBX 8 9 2 0
BITMAP
18
18
FF
FF
18
18
00
FF
FF
ENDCHAR

STARTCHAR twosuperior
ENCODING 178
SWIDTH 408 0
DWIDTH 7 0
BBX 7 7 1 5
BITMAP
3C
66
66
0C
38
66
FC
ENDCHAR

STARTCHAR threesuperior
ENCODING 179
SWIDTH 408 0
DWIDTH 7 0
BBX 7 7 1 5
BITMAP
3C
66
6C
18
CC
CC
78
ENDCHAR

STARTCHAR acute
ENCODING 180
SWIDTH 340 0
DWIDTH 5 0
BBX 4 3 3 10
BITMAP
30
70
C0
ENDCHAR

STARTCHAR mu
ENCODING 181
SWIDTH 680 0
DWIDTH 12 0
BBX 11 13 1 -4
BITMAP
1CE0
7CE0
78C0
39C0
31C0
3180
73A0
7FE0
7DC0
6000
E000
E000
E000
ENDCHAR

STARTCHAR paragraph
ENCODING 182
SWIDTH 680 0
DWIDTH 11 0
BBX 11 15 1 -3
BITMAP
1FE0
7FE0
7360
F360
E660
E6C0
E6C0
7EC0
3EC0
06C0
0CC0
0D80
0D80
0D80
3FE0
ENDCHAR

STARTCHAR periodcentered
ENCODING 183
SWIDTH 340 0
DWIDTH 6 0
BBX 4 3 1 3
BITMAP
60
F0
60
ENDCHAR

STARTCHAR cedilla
ENCODING 184
SWIDTH 360 0
DWIDTH 6 0
BBX 3 4 2 -3
BITMAP
40
40
20
E0
ENDCHAR

STARTCHAR onesuperior
ENCODING 185
SWIDTH 408 0
DWIDTH 7 0
BBX 5 7 2 5
BITMAP
18
78
18
30
30
30
F8
ENDCHAR

STARTCHAR ordmasculine
ENCODING 186
SWIDTH 440 0
DWIDTH 7 0
BBX 7 7 1 5
BITMAP
1C
36
66
6C
38
00
FE
ENDCHAR

STARTCHAR guillemotright
ENCODING 187
SWIDTH 380 0
DWIDTH 6 0
BBX 6 7 1 1
BITMAP
48
48
48
6C
48
90
90
ENDCHAR

STARTCHAR onequarter
ENCODING 188
SWIDTH 1020 0
DWIDTH 17 0
BBX 14 12 3 0
BITMAP
1860
7840
18C0
3180
3100
3318
FE38
0458
0C90
19FC
1030
3078
ENDCHAR

STARTCHAR onehalf
ENCODING 189
SWIDTH 1020 0
DWIDTH 17 0
BBX 14 12 2 0
BITMAP
1860
7840
18C0
3180
3100
3378
FECC
04CC
0C18
1870
10CC
31F8
ENDCHAR

STARTCHAR threequarters
ENCODING 190
SWIDTH 1020 0
DWIDTH 17 0
BBX 15 12 2 0
BITMAP
3C30
6620
6C60
18C0
CC80
CD8C
7B1C
022C
0648
0CFE
0818
183C
ENDCHAR

STARTCHAR questiondown
ENCODING 191
SWIDTH 620 0
DWIDTH 11 0
BBX 10 12 1 -3
BITMAP
0600
0F00
0600
0000
0C00
1C00
7800
F000
E180
E3C0
7380
3F00
ENDCHAR

STARTCHAR Agrave
ENCODING 192
SWIDTH 720 0
DWIDTH 12 0
BBX 12 13 0 0
BITMAP
0600
0700
0180
0000
0380
0380
07C0
0DC0
19C0
3FE0
60E0
F1F0
F1F0
ENDCHAR

STARTCHAR Aacute
ENCODING 193
SWIDTH 720 0
DWIDTH 12 0
BBX 12 13 0 0
BITMAP
00C0
01C0
0300
0000
0380
0380
07C0
0DC0
19C0
3FE0
60E0
F1F0
F1F0
ENDCHAR

STARTCHAR Acircumflex
ENCODING 194
SWIDTH 720 0
DWIDTH 12 0
BBX 12 13 0 0
BITMAP
0300
0780
0CC0
0000
0380
0380
07C0
0DC0
19C0
3FE0
60E0
F1F0
F1F0
ENDCHAR

STARTCHAR Atilde
ENCODING 195
SWIDTH 720 0
DWIDTH 12 0
BBX 12 12 0 0
BITMAP
03A0
05C0
0000
0380
0380
07C0
0DC0
19C0
3FE0
60E0
F1F0
F1F0
ENDCHAR

STARTCHAR Adieresis
ENCODING 196
SWIDTH 720 0
DWIDTH 12 0
BBX 12 13 0 0
BITMAP
0440
0EE0
0440
0000
0380
0380
07C0
0DC0
19C0
3FE0
60E0
F1F0
F1F0
ENDCHAR

STARTCHAR Aring
ENCODING 197
SWIDTH 720 0
DWIDTH 12 0
BBX 12 13 0 0
BITMAP
0180
0240
0240
0180
0380
0380
07C0
0DC0
19C0
3FE0
60E0
F1F0
F1F0
ENDCHAR

STARTCHAR AE
ENCODING 198
SWIDTH 1140 0
DWIDTH 19 0
BBX 19 12 0 0
BITMAP
001FE0
003FE0
007C60
00DC20
019980
033F80
07FF00
0FFB20
187060
3070C0
F8FFC0
F8FFC0
ENDCHAR

STARTCHAR Ccedilla
ENCODING 199
SWIDTH 700 0
DWIDTH 11 0
BBX 11 15 1 -3
BITMAP
0760
1FE0
38E0
7060
7060
E000
E000
E000
E0C0
71C0
7F80
1E00
0800
0400
1C00
ENDCHAR

STARTCHAR Egrave
ENCODING 200
SWIDTH 720 0
DWIDTH 12 0
BBX 11 13 1 0
BITMAP
0C00
0E00
0300
0000
3FE0
3FE0
1C20
3980
3F00
3B20
7060
FFC0
FFC0
ENDCHAR

STARTCHAR Eacute
ENCODING 201
SWIDTH 720 0
DWIDTH 12 0
BBX 11 13 1 0
BITMAP
0180
0380
0600
0000
3FE0
3FE0
1C20
3980
3F00
3B20
7060
FFC0
FFC0
ENDCHAR

STARTCHAR Ecircumflex
ENCODING 202
SWIDTH 720 0
DWIDTH 12 0
BBX 11 13 1 0
BITMAP
0300
0780
0CC0
0000
3FE0
3FE0
1C20
3980
3F00
3B20
7060
FFC0
FFC0
ENDCHAR

STARTCHAR Edieresis
ENCODING 203
SWIDTH 720 0
DWIDTH 12 0
BBX 11 13 1 0
BITMAP
0440
0EE0
0440
0000
3FE0
3FE0
1C20
3980
3F00
3B20
7060
FFC0
FFC0
ENDCHAR

STARTCHAR Igrave
ENCODING 204
SWIDTH 380 0
DWIDTH 7 0
BBX 9 13 0 0
BITMAP
1800
1C00
0600
0000
1F80
1F80
0E00
1C00
1C00
1C00
3800
FC00
FC00
ENDCHAR

STARTCHAR Iacute
ENCODING 205
SWIDTH 380 0
DWIDTH 7 0
BBX 9 13 0 0
BITMAP
0180
0380
0600
0000
1F80
1F80
0E00
1C00
1C00
1C00
3800
FC00
FC00
ENDCHAR

STARTCHAR Icircumflex
ENCODING 206
SWIDTH 380 0
DWIDTH 7 0
BBX 9 13 0 0
BITMAP
0600
0F00
1980
0000
1F80
1F80
0E00
1C00
1C00
1C00
3800
FC00
FC00
ENDCHAR

STARTCHAR Idieresis
ENCODING 207
SWIDTH 380 0
DWIDTH 7 0
BBX 10 13 0 0
BITMAP
0880
1DC0
0880
0000
1F80
1F80
0E00
1C00
1C00
1C00
3800
FC00
FC00
ENDCHAR

STARTCHAR Eth
ENCODING 208
SWIDTH 760 0
DWIDTH 13 0
BBX 13 12 1 0
BITMAP
3FC0
3FF0
1C70
1C38
3838
7F38
3838
3870
7070
70E0
FFC0
FF00
ENDCHAR

STARTCHAR Ntilde
ENCODING 209
SWIDTH 740 0
DWIDTH 12 0
BBX 13 12 1 0
BITMAP
03A0
05C0
0000
3E78
3E78
1E30
3760
3360
33E0
61C0
F1C0
F0C0
ENDCHAR

STARTCHAR Ograve
ENCODING 210
SWIDTH 760 0
DWIDTH 12 0
BBX 12 13 1 0
BITMAP
0C00
0E00
0300
0000
0780
1FE0
38E0
7070
70E0
E0E0
71C0
7F80
1E00
ENDCHAR

STARTCHAR Oacute
ENCODING 211
SWIDTH 760 0
DWIDTH 12 0
BBX 12 13 1 0
BITMAP
00C0
01C0
0300
0000
0780
1FE0
38E0
7070
70E0
E0E0
71C0
7F80
1E00
ENDCHAR

STARTCHAR Ocircumflex
ENCODING 212
SWIDTH 760 0
DWIDTH 12 0
BBX 12 13 1 0
BITMAP
0300
0780
0CC0
0000
0780
1FE0
38E0
7070
70E0
E0E0
71C0
7F80
1E00
ENDCHAR

STARTCHAR Otilde
ENCODING 213
SWIDTH 760 0
DWIDTH 12 0
BBX 12 12 1 0
BITMAP
0740
0B80
0000
0780
1FE0
38E0
7070
70E0
E0E0
71C0
7F80
1E00
ENDCHAR

STARTCHAR Odieresis
ENCODING 214
SWIDTH 760 0
DWIDTH 12 0
BBX 12 13 1 0
BITMAP
0440
0EE0
0440
0000
0780
1FE0
38E0
7070
70E0
E0E0
71C0
7F80
1E00
ENDCHAR

STARTCHAR multiply
ENCODING 215
SWIDTH 600 0
DWIDTH 10 0
BBX 8 8 2 0
BITMAP
42
E7
7E
3C
3C
7E
E7
42
ENDCHAR

STARTCHAR Oslash
ENCODING 216
SWIDTH 760 0
DWIDTH 12 0
BBX 14 14 0 -1
BITMAP
0004
03C8
0FF0
1C70
3878
38B8
7138
7238
7470
7870
38E0
3FC0
4F00
8000
ENDCHAR

STARTCHAR Ugrave
ENCODING 217
SWIDTH 740 0
DWIDTH 12 0
BBX 12 13 2 0
BITMAP
0C00
0E00
0300
0000
7CF0
7CF0
3860
7060
70C0
E0C0
E180
7F80
3E00
ENDCHAR

STARTCHAR Uacute
ENCODING 218
SWIDTH 740 0
DWIDTH 12 0
BBX 12 13 2 0
BITMAP
0180
0380
0600
0000
7CF0
7CF0
3860
7060
70C0
E0C0
E180
7F80
3E00
ENDCHAR

STARTCHAR Ucircumflex
ENCODING 219
SWIDTH 740 0
DWIDTH 12 0
BBX 12 13 2 0
BITMAP
0300
0780
0CC0
0000
7CF0
7CF0
3860
7060
70C0
E0C0
E180
7F80
3E00
ENDCHAR

STARTCHAR Udieresis
ENCODING 220
SWIDTH 740 0
DWIDTH 12 0
BBX 12 13 2 0
BITMAP
0880
1DC0
0880
0000
7CF0
7CF0
3860
7060
70C0
E0C0
E180
7F80
3E00
ENDCHAR

STARTCHAR Yacute
ENCODING 221
SWIDTH 660 0
DWIDTH 11 0
BBX 13 13 1 0
BITMAP
00C0
01C0
0300
0000
FCF8
FCF8
38C0
1D80
1F00
0E00
1C00
3E00
3E00
ENDCHAR

STARTCHAR Thorn
ENCODING 222
SWIDTH 640 0
DWIDTH 11 0
BBX 12 12 0 0
BITMAP
3F00
3F00
1C00
1FE0
1FF0
1C70
3870
3FE0
3FC0
3800
FC00
FC00
ENDCHAR

STARTCHAR germandbls
ENCODING 223
SWIDTH 660 0
DWIDTH 11 0
BBX 15 16 -4 -4
BITMAP
007C
00E6
01C6
018E
07BC
07B8
039C
030E
030E
031E
077C
0670
0600
6600
FC00
7800
ENDCHAR

STARTCHAR agrave
ENCODING 224
SWIDTH 680 0
DWIDTH 11 0
BBX 11 13 1 0
BITMAP
0C00
0E00
0300
0000
0EC0
3BC0
7180
7180
E380
E300
E320
77E0
3DC0
ENDCHAR

STARTCHAR aacute
ENCODING 225
SWIDTH 680 0
DWIDTH 11 0
BBX 11 13 1 0
BITMAP
0180
0380
0600
0000
0EC0
3BC0
7180
7180
E380
E300
E320
77E0
3DC0
ENDCHAR

STARTCHAR acircumflex
ENCODING 226
SWIDTH 680 0
DWIDTH 11 0
BBX 11 13 1 0
BITMAP
0300
0780
0CC0
0000
0EC0
3BC0
7180
7180
E380
E300
E320
77E0
3DC0
ENDCHAR

STARTCHAR atilde
ENCODING 227
SWIDTH 680 0
DWIDTH 11 0
BBX 11 12 1 0
BITMAP
0740
0B80
0000
0EC0
3BC0
7180
7180
E380
E300
E320
77E0
3DC0
ENDCHAR

STARTCHAR adieresis
ENCODING 228
SWIDTH 680 0
DWIDTH 11 0
BBX 11 13 1 0
BITMAP
0440
0EE0
0440
0000
0EC0
3BC0
7180
7180
E380
E300
E320
77E0
3DC0
ENDCHAR

STARTCHAR aring
ENCODING 229
SWIDTH 680 0
DWIDTH 11 0
BBX 11 13 1 0
BITMAP
0300
0480
0480
0300
0EC0
3BC0
7180
7180
E380
E300
E320
77E0
3DC0
ENDCHAR

STARTCHAR ae
ENCODING 230
SWIDTH 880 0
DWIDTH 15 0
BBX 14 9 1 0
BITMAP
1F78
3BDC
338C
031C
1FF8
7700
E70C
FDB8
71E0
ENDCHAR

STARTCHAR ccedilla
ENCODING 231
SWIDTH 560 0
DWIDTH 9 0
BBX 9 12 1 -3
BITMAP
0F00
3B80
7380
6100
E000
E000
E300
7E00
3C00
1000
0800
3800
ENDCHAR

STARTCHAR egrave
ENCODING 232
SWIDTH 560 0
DWIDTH 9 0
BBX 9 13 1 0
BITMAP
1800
1C00
0600
0000
0F00
3B80
7180
6380
FF00
E000
E180
7700
3C00
ENDCHAR

STARTCHAR eacute
ENCODING 233
SWIDTH 560 0
DWIDTH 9 0
BBX 9 13 1 0
BITMAP
0180
0380
0600
0000
0F00
3B80
7180
6380
FF00
E000
E180
7700
3C00
ENDCHAR

STARTCHAR ecircumflex
ENCODING 234
SWIDTH 560 0
DWIDTH 9 0
BBX 9 13 1 0
BITMAP
0600
0F00
1980
0000
0F00
3B80
7180
6380
FF00
E000
E180
7700
3C00
ENDCHAR

STARTCHAR edieresis
ENCODING 235
SWIDTH 560 0
DWIDTH 9 0
BBX 10 13 1 0
BITMAP
0880
1DC0
0880
0000
0F00
3B80
7180
6380
FF00
E000
E180
7700
3C00
ENDCHAR

STARTCHAR igrave
ENCODING 236
SWIDTH 380 0
DWIDTH 6 0
BBX 5 13 1 0
BITMAP
60
70
18
00
38
F8
F0
70
60
E0
E8
F8
70
ENDCHAR

STARTCHAR iacute
ENCODING 237
SWIDTH 380 0
DWIDTH 6 0
BBX 6 13 1 0
BITMAP
0C
1C
30
00
38
F8
F0
70
60
E0
E8
F8
70
ENDCHAR

STARTCHAR icircumflex
ENCODING 238
SWIDTH 380 0
DWIDTH 6 0
BBX 7 13 1 0
BITMAP
18
3C
66
00
38
F8
F0
70
60
E0
E8
F8
70
ENDCHAR

STARTCHAR idieresis
ENCODING 239
SWIDTH 380 0
DWIDTH 6 0
BBX 8 13 1 0
BITMAP
22
77
22
00
38
F8
F0
70
60
E0
E8
F8
70
ENDCHAR

STARTCHAR eth
ENCODING 240
SWIDTH 600 0
DWIDTH 10 0
BBX 10 13 1 0
BITMAP
0C00
06C0
1F00
0380
0F80
3BC0
71C0
71C0
E1C0
E380
E380
7700
3C00
ENDCHAR

STARTCHAR ntilde
ENCODING 241
SWIDTH 680 0
DWIDTH 11 0
BBX 11 12 1 0
BITMAP
0E80
1700
0000
3780
FFC0
F9C0
31C0
7180
7380
63A0
E3E0
E1C0
ENDCHAR

STARTCHAR ograve
ENCODING 242
SWIDTH 600 0
DWIDTH 10 0
BBX 10 13 1 0
BITMAP
1800
1C00
0600
0000
0F00
3B80
71C0
71C0
E1C0
E380
E380
7700
3C00
ENDCHAR

STARTCHAR oacute
ENCODING 243
SWIDTH 600 0
DWIDTH 10 0
BBX 10 13 1 0
BITMAP
0300
0700
0C00
0000
0F00
3B80
71C0
71C0
E1C0
E380
E380
7700
3C00
ENDCHAR

STARTCHAR ocircumflex
ENCODING 244
SWIDTH 600 0
DWIDTH 10 0
BBX 10 13 1 0
BITMAP
0600
0F00
1980
0000
0F00
3B80
71C0
71C0
E1C0
E380
E380
7700
3C00
ENDCHAR

STARTCHAR otilde
ENCODING 245
SWIDTH 600 0
DWIDTH 10 0
BBX 10 12 1 0
BITMAP
0E80
1700
0000
0F00
3B80
71C0
71C0
E1C0
E380
E380
7700
3C00
ENDCHAR

STARTCHAR odieresis
ENCODING 246
SWIDTH 600 0
DWIDTH 10 0
BBX 10 13 1 0
BITMAP
0880
1DC0
0880
0000
0F00
3B80
71C0
71C0
E1C0
E380
E380
7700
3C00
ENDCHAR

STARTCHAR divide
ENCODING 247
SWIDTH 600 0
DWIDTH 10 0
BBX 8 8 2 0
BITMAP
18
18
00
FF
FF
00
18
18
ENDCHAR

STARTCHAR oslash
ENCODING 248
SWIDTH 600 0
DWIDTH 10 0
BBX 12 13 0 -2
BITMAP
0010
0020
07C0
1DC0
39E0
32E0
76E0
74C0
79C0
3B80
3E00
4000
8000
ENDCHAR

STARTCHAR ugrave
ENCODING 249
SWIDTH 680 0
DWIDTH 12 0
BBX 10 13 2 0
BITMAP
1800
1C00
0600
0000
39C0
F9C0
F180
7380
6380
E300
E740
FFC0
7B80
ENDCHAR

STARTCHAR uacute
ENCODING 250
SWIDTH 680 0
DWIDTH 12 0
BBX 10 13 2 0
BITMAP
0180
0380
0600
0000
39C0
F9C0
F180
7380
6380
E300
E740
FFC0
7B80
ENDCHAR

STARTCHAR ucircumflex
ENCODING 251
SWIDTH 680 0
DWIDTH 12 0
BBX 10 13 2 0
BITMAP
0600
0F00
1980
0000
39C0
F9C0
F180
7380
6380
E300
E740
FFC0
7B80
ENDCHAR

STARTCHAR udieresis
ENCODING 252
SWIDTH 680 0
DWIDTH 12 0
BBX 10 13 2 0
BITMAP
0880
1DC0
0880
0000
39C0
F9C0
F180
7380
6380
E300
E740
FFC0
7B80
ENDCHAR

STARTCHAR yacute
ENCODING 253
SWIDTH 600 0
DWIDTH 10 0
BBX 11 17 0 -4
BITMAP
00C0
01C0
0300
0000
1CE0
7CE0
78C0
18C0
39C0
31C0
3380
3F80
1D80
0180
E380
FF00
3C00
ENDCHAR

STARTCHAR thorn
ENCODING 254
SWIDTH 660 0
DWIDTH 11 0
BBX 11 16 0 -4
BITMAP
0C00
3C00
3800
1B80
1FC0
1CE0
38E0
38E0
38C0
31C0
3B80
7700
7000
6000
F000
F000
ENDCHAR

STARTCHAR ydieresis
ENCODING 255
SWIDTH 600 0
DWIDTH 10 0
BBX 11 17 0 -4
BITMAP
0880
1DC0
0880
0000
1CE0
7CE0
78C0
18C0
39C0
31C0
3380
3F80
1D80
0180
E380
FF00
3C00
ENDCHAR
ENDFONT
